<svg xmlns="http://www.w3.org/2000/svg" width="48" height="48" viewBox="0 0 48 48">
  <g fill="none">
    <rect width="48" height="48" fill="#E20613"/>
    <path fill="#FFF" d="M25.5298413,16.4091739 C25.5298413,16.4091739 23.1504663,14.7216739 25.3423413,12.1904239 C25.3423413,12.1904239 26.7232788,10.3097989 27.9129663,10.1569864 C27.9129663,10.1569864 29.7542163,9.3132364 30.1001538,11.5379239 C30.1001538,11.5379239 30.4404663,12.9151114 29.4092163,14.4151114 C29.4092163,14.4151114 27.6064038,16.6791739 26.6089038,16.6791739 C26.6042163,16.6782364 25.9132788,16.7551114 25.5298413,16.4091739 Z M24.1479663,18.3666739 C24.1479663,18.3666739 27.4479663,17.5229239 26.1017163,21.8963614 C26.1017163,21.8963614 25.1801538,24.8119864 24.6017163,26.1544864 C24.6017163,26.1544864 22.2579663,31.6791739 21.9157788,34.0585489 C21.9157788,34.0585489 21.5707788,35.7076114 21.4939038,36.1294864 C21.4939038,36.1294864 21.3785913,37.5497989 19.8064038,37.5497989 C19.8064038,37.5497989 17.6229663,37.8947989 17.2010913,35.6691739 C17.2010913,35.6691739 16.7754663,33.9169864 17.1626538,32.5238614 C17.6191023,30.5959868 18.2352938,28.7094688 19.0048413,26.8838614 C19.0048413,26.8838614 21.0382788,20.9776114 21.8820288,20.0541739 C21.8848413,20.0541739 22.9592163,18.5541739 24.1479663,18.3666739 Z"/>
  </g>
</svg>
