<svg xmlns="http://www.w3.org/2000/svg" width="288" height="48" viewBox="0 0 288 48">
  <g fill="none">
    <g transform="translate(48)">
      <rect width="240" height="48" fill="#FFF"/>
      <path fill="#4B4B4B" d="M15.2842105,20.5473684 C15.4105263,21.0105263 15.7052632,21.4315789 16.0842105,21.8105263 C16.4210526,22.2315789 16.4210526,22.5263158 15.9157895,22.5684211 C15.4526316,22.6526316 14.9473684,22.6105263 14.5263158,22.4 C12.5052632,21.1789474 11.5789474,19.2842105 11.2,17.0526316 C11.1157895,16.4631579 10.9473684,15.8736842 10.7789474,15.3263158 C10.7368421,15.1157895 10.3157895,14.9052632 10.2315789,14.9473684 C9.47368421,15.4105263 8.84210526,14.9894737 8.12631579,14.7789474 C7.41052632,14.5684211 6.82105263,14.3578947 6.14736842,14.1473684 C5.6,13.9789474 5.30526316,14.3157895 5.09473684,14.7368421 C3.91578947,16.8 2.73684211,18.8631579 1.6,20.9263158 C1.09473684,21.8526316 0.673684211,22.8210526 0.252631579,23.7894737 L3.55271368e-15,23.7473684 C0.0842105263,23.1578947 0.126315789,22.5684211 0.378947368,21.9789474 C0.926315789,19.2842105 2.02105263,16.8 3.24210526,14.3578947 C3.66315789,13.5578947 3.53684211,13.4315789 2.65263158,13.3894737 L1.43157895,13.3894737 L1.13684211,12.9684211 L1.76842105,12.7578947 C2.52631579,12.4631579 3.32631579,12.2105263 4.08421053,11.8736842 C4.33684211,11.7473684 4.58947368,11.5789474 4.71578947,11.3263158 C5.85263158,9.43157895 6.90526316,7.49473684 8.04210526,5.6 C8.16842105,5.34736842 8.37894737,5.09473684 8.58947368,4.88421053 C8.75789474,4.75789474 8.96842105,4.63157895 9.17894737,4.50526316 C9.30526316,4.71578947 9.34736842,4.92631579 9.38947368,5.17894737 C9.30526316,7.24210526 8.96842105,9.22105263 7.62105263,10.8631579 C7.49473684,11.0315789 7.36842105,11.1578947 7.28421053,11.3263158 C7.11578947,11.6210526 7.15789474,11.8315789 7.53684211,11.9157895 C8.29473684,12.0421053 9.09473684,12.1263158 9.85263158,12.2947368 C10.4421053,12.4210526 10.5684211,12.1263158 10.5263158,11.6210526 C10.3578947,9.89473684 10.1894737,8.12631579 9.97894737,6.4 C9.81052632,5.13684211 9.64210526,3.83157895 9.43157895,2.56842105 C9.34736842,2.18947368 9.22105263,1.85263158 9.09473684,1.47368421 C9.68421053,1.64210526 10.2315789,1.76842105 10.7368421,1.93684211 C11.2,2.06315789 11.6631579,2.31578947 12.0842105,2.61052632 C12.5473684,2.98947368 12.8421053,3.49473684 13.0105263,4.04210526 C13.5157895,7.03157895 13.9368421,10.0210526 14.3578947,13.0105263 C14.5684211,14.5684211 14.7789474,16.1263158 14.9473684,17.7263158 C15.0315789,18.6947368 15.0736842,19.6210526 15.2842105,20.5473684 Z M67.3684211,9.55789474 C65.0526316,9.93684211 62.7368421,12.9684211 62.6105263,14.9894737 C62.6526316,16.3368421 62.7368421,17.6842105 62.9473684,18.9894737 C63.0315789,19.5368421 63.4526316,20 64,20.1263158 C64.8421053,20.3789474 65.6421053,20.8421053 66.5263158,21.0105263 C67.9157895,21.2631579 69.2210526,20.7157895 70.5263158,20.2105263 C70.6526316,20.1263158 70.8210526,20.0842105 71.0736842,20 C71.0315789,20.8421053 70.6105263,21.5578947 69.9368421,22.0210526 C68.4210526,22.9473684 66.5684211,23.2842105 64.8421053,22.8631579 C63.7052632,22.6105263 62.6526316,22.1894737 61.6421053,21.6421053 C60.2526316,20.9684211 59.7052632,19.5789474 59.3263158,18.1473684 C58.6526316,15.5789474 58.9473684,12.9684211 59.4526316,10.4421053 C59.7473684,8.96842105 60.5473684,7.70526316 61.6842105,6.73684211 C62.7789474,5.81052632 63.9157895,4.92631579 65.1368421,4.21052632 C65.8947368,3.74736842 66.8210526,3.78947368 67.4947368,4.33684211 C68.0842105,4.75789474 68.8,4.88421053 69.4315789,5.22105263 C70.4,5.72631579 71.2421053,6.31578947 71.2842105,7.53684211 C71.3263158,8.42105263 71.1578947,8.63157895 70.3157895,8.84210526 C69.3473684,9.09473684 68.3368421,9.38947368 67.3684211,9.55789474 Z M48.5052632,5.64210526 L49.9789474,5.64210526 L50.0631579,5.85263158 C49.8526316,5.97894737 49.6,6.14736842 49.3473684,6.23157895 C47.8315789,6.61052632 46.3157895,6.98947368 44.8,7.32631579 C44.0421053,7.49473684 43.5368421,7.87368421 43.4105263,8.71578947 C43.3263158,9.30526316 42.9894737,9.85263158 42.7789474,10.4421053 C42.6526316,10.8210526 42.6105263,11.1578947 42.6105263,11.5368421 C42.6105263,12.4631579 42.7368421,13.3473684 42.6947368,14.2315789 C42.6526316,15.3684211 42.6526316,16.5052632 42.2736842,17.6842105 C41.9368421,18.6526316 42.0210526,19.7894737 42.0210526,20.8842105 C42.0210526,21.2210526 42.3578947,21.5578947 42.4842105,21.9368421 C42.5684211,22.2315789 42.5684211,22.5263158 42.5684211,22.8210526 C42.2315789,22.7789474 41.8105263,22.8631579 41.5578947,22.6947368 C41.0526316,22.3157895 40.5894737,21.8526316 40.2105263,21.3894737 C40,21.1368421 39.8736842,20.8421053 39.7894737,20.5473684 C39.4105263,19.2842105 39.1578947,18.0210526 38.9473684,16.7157895 C38.7789474,15.2421053 38.6947368,13.7263158 38.7368421,12.2526316 C38.8210526,10.9052632 39.1157895,9.6 39.2421053,8.25263158 C39.2421053,8 38.8631579,7.62105263 38.6105263,7.41052632 C38.3578947,7.28421053 38.0631579,7.2 37.7684211,7.15789474 C37.3473684,7.03157895 36.9263158,6.82105263 37.0526316,6.23157895 C37.1789474,5.68421053 37.3894737,5.26315789 38.1473684,5.26315789 C39.9157895,5.26315789 39.9157895,5.26315789 40.3789474,3.57894737 C40.5052632,3.07368421 40.6736842,2.56842105 40.8,2.06315789 C41.0105263,1.22105263 41.7263158,0.842105263 42.4842105,1.30526316 C43.8736842,2.14736842 44.8842105,2.65263158 44.2526316,4.88421053 C44.0842105,5.47368421 44.5473684,5.68421053 44.9684211,5.68421053 C46.1473684,5.68421053 47.3263158,5.68421053 48.5052632,5.64210526 Z M190.947368,12.2105263 C191.494737,12.7578947 192.421053,13.3052632 192.463158,13.9368421 C192.673684,15.5789474 193.010526,17.3052632 192.336842,18.9473684 C191.789474,20.3368421 190.652632,21.2631579 189.305263,21.9368421 C187.578947,22.8210526 185.810526,23.3263158 183.831579,23.0315789 C182.147368,22.7789474 180.884211,22.1473684 180.126316,20.5052632 C179.452632,19.1157895 178.863158,17.6842105 179.073684,16.0842105 C179.242105,14.4 180.084211,12.8421053 181.431579,11.7894737 C182.273684,11.1578947 183.031579,10.4421053 183.831579,9.81052632 C184.505263,9.26315789 184.673684,9.34736842 185.136842,10.0210526 C185.684211,10.8210526 186.273684,11.5789474 186.863158,12.3368421 C187.284211,12.9263158 187.2,13.1789474 186.526316,13.3473684 C184.757895,13.8526316 183.2,14.7368421 182.273684,16.3368421 C181.178947,18.1894737 181.894737,20 184.294737,20.3789474 C185.010526,20.4210526 185.726316,20.4631579 186.442105,20.4210526 C187.663158,20.5052632 188.252632,19.5789474 189.052632,18.9052632 C190.357895,17.8947368 191.031579,16.2105263 190.778947,14.5684211 C190.610526,13.0947368 190.568421,12.4631579 188.715789,11.6631579 C189.515789,11.3684211 190.4,11.5789474 190.947368,12.2105263 Z M163.873684,7.03157895 C164.126316,7.07368421 164.378947,7.07368421 164.673684,7.03157895 L164.715789,7.24210526 C164.463158,7.41052632 164.168421,7.53684211 163.873684,7.66315789 C162.273684,8.04210526 160.715789,8.42105263 159.157895,8.75789474 C158.568421,8.8 158.147368,9.30526316 158.105263,9.89473684 C157.810526,11.7473684 157.389474,13.5578947 157.094737,15.3684211 C156.926316,16.4210526 156.884211,17.4736842 156.8,18.5263158 C156.715789,19.1157895 156.673684,19.7473684 156.673684,20.3789474 C156.673684,20.8842105 156.842105,21.3473684 156.884211,21.8526316 C156.884211,22.1894737 156.842105,22.5263158 156.757895,22.8210526 C156.463158,22.6947368 156.126316,22.6526316 155.957895,22.4421053 C154.736842,20.9263158 153.978947,19.1578947 153.684211,17.2210526 C153.473684,15.8315789 153.389474,14.4 153.389474,12.9684211 C153.431579,11.9157895 153.557895,10.8631579 153.768421,9.81052632 C153.894737,9.34736842 153.684211,8.88421053 153.263158,8.63157895 C152.463158,8.16842105 152.336842,6.94736842 152.294737,6.18947368 C152.378947,6.02105263 153.347368,6.31578947 153.557895,6.4 C153.936842,6.65263158 154.442105,6.48421053 154.652632,6.10526316 C154.694737,6.02105263 154.736842,5.93684211 154.736842,5.81052632 C154.989474,4.92631579 155.242105,4 155.536842,3.11578947 C155.915789,2.02105263 156.631579,1.85263158 157.473684,2.61052632 C157.852632,2.94736842 158.231579,3.32631579 158.568421,3.74736842 C159.073684,4.29473684 159.2,5.05263158 158.989474,5.76842105 C158.694737,6.77894737 158.947368,7.11578947 160,7.11578947 C161.263158,7.11578947 162.568421,7.03157895 163.873684,7.03157895 Z M86.9894737,12.1684211 C89.0105263,12.9263158 89.5578947,14.5263158 89.5157895,16.8842105 C89.2210526,18.5263158 88.8842105,20.6315789 86.9894737,21.8947368 C85.0947368,23.1578947 82.9894737,23.4526316 80.5894737,22.0631579 C78.8210526,21.0105263 78.0631579,19.3684211 77.4315789,17.4736842 C76.6315789,15.0315789 77.8526316,13.3052632 79.0315789,11.5368421 C79.4947368,10.8210526 80,10.1894737 80.5894737,9.6 C81.7684211,8.46315789 82.0631579,8.63157895 83.3263158,9.64210526 C83.7473684,9.97894737 84.0842105,10.4842105 84.5473684,10.7789474 C85.3052632,11.3263158 86.1473684,11.7894737 86.9894737,12.1684211 Z M87.5368421,17.2631579 C88.2947368,15.8736842 87.7473684,14.1052632 86.3578947,13.3473684 C86.2315789,13.3052632 86.1473684,13.2631579 86.0631579,13.2210526 C85.7684211,13.1368421 85.5157895,12.9263158 85.3473684,12.6736842 C85.1368421,12.1684211 84.7578947,12.1684211 84.3368421,12.2526316 C82.9473684,12.6315789 81.9789474,13.5578947 81.1368421,14.6526316 C80.4631579,15.4526316 80.0842105,16.4631579 80.0421053,17.5157895 C80.1263158,18.1894737 80.2947368,18.8631579 80.4631579,19.4947368 C80.5473684,19.8315789 80.8,20.1263158 81.0947368,20.3368421 C82.5684211,21.0947368 84.2105263,21.1789474 85.6421053,19.9157895 C86.4842105,19.1578947 86.9894737,18.1894737 87.5368421,17.2631579 Z M215.578947,22.0210526 C215.621053,22.1894737 215.368421,22.4421053 215.242105,22.6105263 C215.073684,22.4842105 214.778947,22.4 214.694737,22.2315789 C214.231579,21.1368421 213.768421,20.0421053 213.305263,18.9473684 C212.589474,17.2631579 211.410526,15.7894737 209.936842,14.7368421 C209.052632,14.1052632 207.789474,14.2315789 207.031579,15.0315789 C205.684211,16.5052632 204.421053,18.0210526 203.957895,20.0421053 C203.915789,20.5894737 203.578947,21.0526316 203.073684,21.2631579 C202.694737,21.4736842 202.357895,21.7263158 202.105263,22.0631579 C201.431579,22.6105263 200.715789,22.4842105 200.421053,21.6421053 C200.126316,20.8 200,20.0421053 199.789474,19.2 C200.084211,17.9789474 200.378947,16.8421053 200.631579,15.6631579 C201.010526,14.1052632 201.389474,12.5473684 201.726316,10.9473684 C201.852632,10.4 202.105263,10.2315789 202.568421,10.5263158 C203.242105,10.9473684 203.873684,11.4526316 204.547368,11.8736842 C204.757895,12.0421053 205.052632,12.0842105 205.305263,12.0842105 C207.115789,11.7473684 208.673684,12.2105263 210.189474,13.2210526 C212.378947,14.6526316 213.684211,16.8842105 214.905263,19.0736842 C215.410526,19.9157895 215.410526,21.0526316 215.578947,22.0210526 Z M101.010526,20.6736842 C101.6,20.6315789 102.147368,20.6736842 102.736842,20.8421053 C102.863158,21.1368421 102.863158,21.5157895 102.736842,21.8105263 C102.357895,22.4 101.052632,22.5684211 100.378947,22.3578947 C97.5578947,21.4315789 97.1368421,19.0315789 96.7578947,16.4631579 C96.9263158,15.5368421 97.0947368,14.4421053 97.2631579,13.3894737 C97.3052632,13.2631579 97.3052632,13.0947368 97.3473684,12.9684211 C97.4736842,10.1894737 98.5684211,7.62105263 99.2,4.92631579 C99.5368421,3.66315789 99.6210526,2.35789474 99.8736842,1.05263158 C99.9578947,0.842105263 100,0.673684211 100.084211,0.463157895 C100.294737,0.505263158 100.463158,0.589473684 100.631579,0.673684211 C101.221053,1.13684211 101.936842,1.51578947 102.357895,2.10526316 C102.652632,2.69473684 102.778947,3.32631579 102.694737,4 C102.4,5.81052632 101.936842,7.57894737 101.6,9.38947368 C101.431579,10.3578947 101.305263,11.3263158 101.136842,12.2526316 C100.968421,13.1789474 100.715789,14.0631579 100.547368,14.9894737 C100.252632,16.5052632 99.8736842,18.0210526 99.6631579,19.5789474 C99.5368421,20.5052632 100.042105,20.8 101.010526,20.6736842 Z M132.168421,11.2842105 C132.715789,11.6631579 132.884211,12.1263158 132.505263,12.7578947 C132.378947,13.0526316 132.210526,13.3473684 132.084211,13.6842105 C131.494737,14.9473684 130.315789,15.4526316 129.136842,15.8736842 C128.463158,16.1263158 127.705263,16.1684211 127.031579,15.9157895 C126.568421,15.6631579 126.021053,15.8736842 125.810526,16.2947368 C125.810526,16.3368421 125.768421,16.4210526 125.768421,16.4631579 C125.389474,17.6 124.926316,18.7368421 125.431579,19.9578947 C125.6,20.2526316 125.894737,20.4631579 126.189474,20.5052632 C127.747368,20.6315789 128.842105,19.8736842 129.6,18.2315789 C129.642105,18.1052632 129.726316,17.9368421 129.810526,17.7684211 C130.484211,18.0631579 130.442105,18.6105263 130.315789,19.0736842 C129.768421,21.0526316 127.789474,22.4 126.063158,22.3578947 C125.768421,22.3578947 125.515789,22.2736842 125.263158,22.1473684 C124.168421,21.3473684 123.242105,20.3368421 122.568421,19.1578947 C121.515789,17.2210526 121.810526,15.4947368 122.736842,13.6 C123.494737,11.9578947 124.884211,10.6947368 126.526316,10.0210526 C127.621053,9.55789474 128.884211,9.17894737 130.105263,10.0210526 C130.778947,10.4842105 131.494737,10.8631579 132.168421,11.2842105 Z M130.736842,13.9368421 C130.947368,13.6842105 131.073684,13.3052632 130.989474,12.9263158 C130.905263,12.7157895 130.694737,12.5894737 130.484211,12.5894737 C129.515789,12.9684211 128.547368,13.3894737 127.621053,13.8526316 C127.452632,13.9368421 127.368421,14.4 127.410526,14.6526316 C127.536842,14.9473684 127.873684,15.1578947 128.210526,15.1157895 C129.052632,14.7789474 129.936842,14.3578947 130.736842,13.9368421 Z M114.484211,20.4631579 C114.778947,20.4631579 115.284211,20.5894737 115.326316,20.6315789 C115.326316,20.9684211 115.326316,21.5157895 115.073684,21.6842105 C114.568421,22.0631579 113.978947,22.3578947 113.347368,22.5263158 C111.915789,22.9473684 111.115789,22.4421053 110.736842,20.9263158 C110.568421,20.5052632 110.484211,20 110.4,19.5368421 C110.357895,18.5684211 110.4,17.5578947 110.4,16.6736842 C110.231579,13.8947368 110.778947,11.3263158 111.326316,8.75789474 C111.705263,6.86315789 112.168421,4.92631579 112.589474,3.03157895 C112.631579,2.86315789 112.926316,2.61052632 113.052632,2.65263158 C113.936842,2.82105263 115.284211,5.05263158 115.073684,5.97894737 C114.736842,7.49473684 114.315789,8.96842105 114.021053,10.4842105 C113.684211,12.2526316 113.473684,14.0631579 113.221053,15.8736842 C113.052632,17.1368421 112.926316,18.4421053 112.757895,19.7052632 C112.673684,20.2526316 112.926316,20.5052632 113.389474,20.5473684 C113.726316,20.5894737 114.105263,20.4631579 114.484211,20.4631579 Z M146.610526,20.7157895 C146.821053,20.6736842 147.073684,20.6736842 147.326316,20.6736842 C146.778947,22.1473684 145.6,22.3157895 144.463158,22.4842105 C141.978947,22.8210526 140.252632,21.6 139.115789,19.5368421 C138.4,18.1894737 138.442105,16.6315789 138.694737,15.1157895 C139.115789,12.5473684 140.842105,11.0736842 143.031579,10.1052632 C143.410526,9.93684211 144.042105,10.1894737 144.505263,10.4 C145.178947,10.6526316 145.852632,11.0315789 146.442105,11.4947368 C147.157895,12.1684211 146.736842,13.1368421 145.810526,13.3052632 C143.705263,13.6421053 142.063158,14.6105263 141.305263,16.6736842 C140.842105,17.7684211 140.926316,19.0315789 141.515789,20.0842105 C141.726316,20.4631579 142.4,20.6315789 142.905263,20.7157895 C144.126316,20.9684211 145.389474,21.1368421 146.610526,20.7157895 Z M31.9578947,11.8736842 C32.3789474,12.0842105 32.7157895,12.3789474 33.0526316,12.6315789 C33.2210526,12.8 33.2210526,13.0526316 33.2631579,13.2631579 C33.0526316,13.3473684 32.8421053,13.3473684 32.6315789,13.3473684 C32.2947368,13.2210526 31.9157895,13.0526316 31.5789474,12.8842105 C29.8105263,12.0421053 28.2947368,12.7578947 27.8315789,14.6947368 C27.5368421,15.9157895 27.1578947,17.1368421 26.8210526,18.3578947 C26.7368421,18.6947368 26.6947368,18.9894737 26.6947368,19.3263158 C26.8210526,20.5473684 26.1052632,21.3052632 25.3894737,22.1052632 C25.0526316,22.4421053 24.8,22.3578947 24.5052632,22.1052632 C23.7052632,21.3052632 23.4947368,20.2947368 23.4526316,19.2421053 C23.4105263,17.9789474 23.4526316,16.7157895 23.4526316,15.4526316 L23.4105263,15.4526316 L23.4105263,11.7052632 C23.4105263,10.8210526 23.4947368,10.7368421 24.2947368,10.9894737 C24.6315789,11.0736842 24.9684211,11.3263158 25.3052632,11.4105263 C25.6,11.5368421 25.9368421,11.5789474 26.2736842,11.4947368 C28.2526316,10.6947368 30.1052632,10.9473684 31.9578947,11.8736842 Z M168.926316,10.4842105 C169.642105,11.0736842 170.315789,11.7052632 171.031579,12.4210526 C171.157895,12.5473684 171.115789,12.8421053 171.157895,13.0526316 C171.157895,13.3052632 171.073684,13.5578947 171.031579,13.7684211 C170.105263,16.3368421 169.6,18.9894737 169.515789,21.7263158 C169.473684,22.0210526 169.347368,22.3157895 169.178947,22.5684211 C168.884211,22.4421053 168.631579,22.2736842 168.421053,22.0631579 C167.452632,21.0526316 167.115789,19.8315789 167.031579,18.5263158 C166.863158,16.2947368 167.031579,14.1052632 167.452632,11.9157895 C167.536842,11.5789474 167.621053,11.2421053 167.789474,10.9473684 C168.042105,10.5263158 168.463158,10.1473684 168.926316,10.4842105 Z M170.568421,2.18947368 C171.873684,1.85263158 173.010526,1.22105263 173.936842,0.252631579 C174.063158,0.168421053 174.273684,0.0842105263 174.442105,-7.10542736e-15 C174.231579,0.968421053 174.105263,1.72631579 173.852632,2.48421053 C173.642105,3.07368421 173.389474,3.66315789 173.094737,4.25263158 C172.715789,5.09473684 171.915789,5.30526316 171.284211,4.63157895 C170.821053,4.12631579 170.442105,3.53684211 170.147368,2.90526316 C170.063158,2.77894737 170.357895,2.23157895 170.568421,2.18947368 Z" transform="translate(12 12)"/>
    </g>
    <rect width="48" height="48" fill="#E20613"/>
    <path fill="#FFF" d="M11.5359375,14.859375 C11.5359375,14.859375 9.1565625,13.171875 11.3484375,10.640625 C11.3484375,10.640625 12.729375,8.76 13.9190625,8.6071875 C13.9190625,8.6071875 15.7603125,7.7634375 16.10625,9.988125 C16.10625,9.988125 16.4465625,11.3653125 15.4153125,12.8653125 C15.4153125,12.8653125 13.6125,15.129375 12.615,15.129375 C12.6103125,15.1284375 11.919375,15.2053125 11.5359375,14.859375 Z M10.1540625,16.816875 C10.1540625,16.816875 13.4540625,15.973125 12.1078125,20.3465625 C12.1078125,20.3465625 11.18625,23.2621875 10.6078125,24.6046875 C10.6078125,24.6046875 8.2640625,30.129375 7.921875,32.50875 C7.921875,32.50875 7.576875,34.1578125 7.5,34.5796875 C7.5,34.5796875 7.3846875,36 5.8125,36 C5.8125,36 3.6290625,36.345 3.2071875,34.119375 C3.2071875,34.119375 2.7815625,32.3671875 3.16875,30.9740625 C3.62519857,29.0461879 4.24139004,27.1596699 5.0109375,25.3340625 C5.0109375,25.3340625 7.044375,19.4278125 7.888125,18.504375 C7.8909375,18.504375 8.9653125,17.004375 10.1540625,16.816875 Z M24.46875,11.368125 L22.280625,16.164375 C22.280625,16.164375 18.826875,23.799375 18.328125,25.6021875 C18.328125,25.6021875 15.646875,32.9690625 14.990625,34.8834375 C14.990625,34.8834375 14.7215625,36.8015625 12.496875,35.4590625 C12.496875,35.4590625 10.57875,34.7296875 11.345625,30.0871875 C11.345625,30.0871875 11.8059375,26.865 13.689375,22.3378125 C13.689375,22.3378125 16.2590625,15.853125 17.5640625,13.321875 C17.5640625,13.325625 19.5196875,9.375 20.9390625,8.030625 C20.9390625,8.030625 21.63,7.4934375 21.975,7.4934375 C21.975,7.4934375 22.63125,7.5703125 23.28,8.4525 C23.28,8.4525 24.9675,10.1025 24.46875,11.368125 Z M27.920625,24.1875 C27.920625,24.1875 26.079375,27.943125 25.2328125,30.85875 L23.775,35.0025 C23.775,35.0025 23.2378125,37.34625 21.050625,35.6540625 C21.050625,35.6540625 18.4415625,34.0434375 20.7440625,27.1753125 C20.7440625,27.1753125 23.045625,20.308125 23.8125,19.08 L25.3884375,15.511875 L27,12.020625 C27,12.020625 28.9575,9.105 29.4178125,8.9559375 C29.4178125,8.9559375 30.530625,7.6134375 32.218125,9.3009375 C32.218125,9.3009375 33.9834375,10.835625 32.8321875,13.138125 C32.8321875,13.138125 28.49625,23.34375 27.920625,24.1875 Z M42.958125,19.4634375 C42.958125,19.4634375 45.7209375,21.075 44.9915625,22.875 C44.9915625,22.875 44.3353125,26.25 41.9221875,29.6728125 C41.9221875,29.6728125 39.159375,34.775625 33.75,38.34375 C33.75,38.34375 29.836875,41.17875 27.534375,42.2175 C27.534375,42.2175 25.539375,42.9459375 24.5803125,42.6778125 C24.5803125,42.6778125 23.2678125,42.294375 25.0790625,41.71875 C25.6325728,41.4215452 26.1537941,41.0677808 26.634375,40.663125 C27.8034375,39.83625 29.4234375,38.619375 31.228125,37.070625 C31.228125,37.070625 33.290625,35.195625 33.6365625,34.7334375 C33.6365625,34.7334375 34.2121875,34.1578125 33.33,34.4653125 C33.33,34.4653125 29.7234375,36.345 27.8821875,32.2396875 C27.8821875,32.2396875 26.80875,30.3984375 29.34,25.640625 C29.34,25.640625 32.101875,20.311875 33.48375,18.811875 C33.48375,18.811875 34.4428125,17.085 35.9775,18.39 L37.32,19.8478125 C37.32,19.8478125 38.548125,20.5040625 37.32,22.456875 L33.48375,28.4803125 C33.48375,28.4803125 32.5621875,30.3553125 33.1378125,30.6665625 C33.1378125,30.6665625 33.598125,31.0884375 35.555625,28.940625 C35.555625,28.940625 37.54875,26.445 38.0109375,25.8328125 C39.4284375,23.953125 41.23125,20.6146875 41.23125,20.6146875 C41.23125,20.6146875 42.22875,18.8071875 42.958125,19.4634375 Z"/>
  </g>
</svg>
